# xmcd CD database file
#
# Track frame offsets:
#	150
#	17067
#	32302
#	48318
#	64519
#	81017
#	95737
#	111297
#	127570
#	145292
#	162030
#	182266
#	199392
#
# Disc length: 2870 seconds
#
# Revision: 4
# Processed by: cddbd v1.5.2PL0 Copyright (c) Steve Scherf et al.
# Submitted via: CDex 1.51
#
DISCID=9c0b340d
DTITLE=Luke Bryan - Tailgates and Tanlines
DYEAR=2011
DGENRE=Country
TTITLE0=Country Girl (Shake It For Me)
TTITLE1=Kiss Tomorrow Goodbye
TTITLE2=Drunk On You
TTITLE3=Too Damn Young
TTITLE4=I Don't Want This Night To End
TTITLE5=You Don't Know Jack
TTITLE6=Harvest Time
TTITLE7=I Know You're Gonna Be There
TTITLE8=Muckalee Creek Water
TTITLE9=Tailgate Blues
TTITLE10=Been There, Done That
TTITLE11=Faded Away
TTITLE12=I Knew You That Way
EXTD=YEAR: 2011
EXTT0=
EXTT1=
EXTT2=
EXTT3=
EXTT4=
EXTT5=
EXTT6=
EXTT7=
EXTT8=
EXTT9=
EXTT10=
EXTT11=
EXTT12=
PLAYORDER=
